{"title":"RocknRolla[x264][AC3(5.1)]Multi_Sub.mkv","uid":5248695,"size":2203011614,"categoryP":"video","categoryS":"movies","magnet":"?xt=urn:btih:4c832bfee004a40a24d1e19b282f08c26563c450&amp;dn=RocknRolla%5Bx264%5D%5BAC3%285.1%29%5DMulti_Sub.mkv&amp;tr=udp%3A%2F%2Ftracker.openbittorrent.com%3A80&amp;tr=udp%3A%2F%2Fopen.demonii.com%3A1337&amp;tr=udp%3A%2F%2Ftracker.coppersurfer.tk%3A6969&amp;tr=udp%3A%2F%2Fexodus.desync.com%3A6969","seeders":1,"leechers":0,"uploader":"Zen_Bud","files":-1,"time":1262249785,"description":"General\nComplete name                    : RocknRolla.mkv\nFormat                           : Matroska\nFile size                        : 2.05 GiB\nDuration                         : 1h 54mn\nOverall bit rate                 : 2 570 Kbps\n\n\nVideo\nID                               : 1\nFormat                           : AVC\nCodec ID                         : V_MPEG4/ISO/AVC\nDuration                         : 1h 54mn\nBit rate                         : 1 878 Kbps\nNominal bit rate                 : 1 924 Kbps\nWidth                            : 1 280 pixels\nHeight                           : 536 pixels\nDisplay aspect ratio             : 2.35:1\nFrame rate                       : 23.976 fps\nResolution                       : 8 bits\nColorimetry                      : 4:2:0\nScan type                        : Progressive\nBits/(Pixel*Frame)               : 0.114\nStream size                      : 1.50 GiB (73%)\nWriting library                  : x264 core 79\n\n\nAudio\nID                               : 2\nFormat                           : AC-3\nFormat/Info                      : Audio Coding 3\nCodec ID                         : A_AC3\nDuration                         : 1h 54mn\nBit rate mode                    : Constant\nBit rate                         : 640 Kbps\nChannel(s)                       : 6 channels\nChannel positions                : Front: L C R, Surround: L R, LFE\nSampling rate                    : 48.0 KHz\nStream size                      : 523 MiB (25%)\n\nText #1\nLanguage                         : French\n\nText #2\nLanguage                         : English\n\nText #3\nLanguage                         : Swedish\n\nText #4\nLanguage                         : Norwegian\n\nText #5\nLanguage                         : Spanish\n\n","torrent":{"xt":"urn:btih:4c832bfee004a40a24d1e19b282f08c26563c450","amp;dn":"RocknRolla%5Bx264%5D%5BAC3%285.1%29%5DMulti_Sub.mkv","amp;tr":["udp%3A%2F%2Ftracker.openbittorrent.com%3A80","udp%3A%2F%2Fopen.demonii.com%3A1337","udp%3A%2F%2Ftracker.coppersurfer.tk%3A6969","udp%3A%2F%2Fexodus.desync.com%3A6969"],"infoHash":"4c832bfee004a40a24d1e19b282f08c26563c450","infoHashBuffer":{"type":"Buffer","data":[76,131,43,254,224,4,164,10,36,209,225,155,40,47,8,194,101,99,196,80]},"announce":[],"urlList":[]}}